# xmcd
#
# Track frame offsets: 
#        150
#        17988
#        39649
#        61097
#        80404
#        104315
#        122319
#        137859
#        155769
#        173291
#        193562
#
# Disc length: 2809 seconds
#
# Revision: 1
# Processed by: cddbd v1.5.2PL0 Copyright (c) Steve Scherf et al.
# Submitted via: ExactAudioCopy v0.99pb4
#
DISCID=850af70b
DTITLE=Reba Russel Band - Restless
DYEAR=2002
DGENRE=Blues
TTITLE0=The Way Love Is Sometimes
TTITLE1=Just A Fine Wine
TTITLE2=Dark New Sun
TTITLE3=Restless
TTITLE4=Wished I Was Noah
TTITLE5=As Angels Do
TTITLE6=Putting Out Fires
TTITLE7=Thought Of A Man
TTITLE8=To Hard To Hold Down
TTITLE9=Back Of You
TTITLE10=This Old Town
EXTD=ID3G: 0
EXTT0=
EXTT1=
EXTT2=
EXTT3=
EXTT4=
EXTT5=
EXTT6=
EXTT7=
EXTT8=
EXTT9=
EXTT10=
PLAYORDER=
